<?xml version="1.0" encoding="UTF-8" standalone="no"?>
<!-- Generator: Adobe Illustrator 19.0.0, SVG Export Plug-In . SVG Version: 6.00 Build 0)  -->

<svg
   xmlns:dc="http://purl.org/dc/elements/1.1/"
   xmlns:cc="http://creativecommons.org/ns#"
   xmlns:rdf="http://www.w3.org/1999/02/22-rdf-syntax-ns#"
   xmlns:svg="http://www.w3.org/2000/svg"
   xmlns="http://www.w3.org/2000/svg"
   xmlns:sodipodi="http://sodipodi.sourceforge.net/DTD/sodipodi-0.dtd"
   xmlns:inkscape="http://www.inkscape.org/namespaces/inkscape"
   version="1.1"
   id="Layer_1"
   x="0px"
   y="0px"
   viewBox="0 0 134.44119 72.098951"
   enable-background="new 0 0 196.6 72"
   xml:space="preserve"
   inkscape:version="0.92.3 (2405546, 2018-03-11)"
   sodipodi:docname="Nextcloud_Logo.svg"
   width="134.44118"
   height="72.098953"
   inkscape:export-filename="nextcloud-logo-white-transparent.png"
   inkscape:export-xdpi="300.09631"
   inkscape:export-ydpi="300.09631"><metadata
     id="metadata20"><rdf:RDF><cc:Work
         rdf:about=""><dc:format>image/svg+xml</dc:format><dc:type
           rdf:resource="http://purl.org/dc/dcmitype/StillImage" /><dc:title></dc:title></cc:Work></rdf:RDF></metadata><defs
     id="defs18" /><sodipodi:namedview
     pagecolor="#ffffff"
     bordercolor="#666666"
     borderopacity="1"
     objecttolerance="10"
     gridtolerance="10"
     guidetolerance="10"
     inkscape:pageopacity="0"
     inkscape:pageshadow="2"
     inkscape:window-width="1920"
     inkscape:window-height="1020"
     id="namedview16"
     showgrid="false"
     inkscape:zoom="4"
     inkscape:cx="75.820577"
     inkscape:cy="10.858529"
     inkscape:current-layer="Layer_1"
     fit-margin-top="10"
     fit-margin-left="10"
     fit-margin-right="10"
     fit-margin-bottom="10"
     inkscape:window-x="1440"
     inkscape:window-y="0"
     inkscape:window-maximized="1"
     units="px"
     inkscape:snap-bbox="true"
     inkscape:bbox-paths="true"
     inkscape:bbox-nodes="true"
     inkscape:snap-bbox-edge-midpoints="true"
     inkscape:snap-bbox-midpoints="true"
     inkscape:snap-page="true" /><path
     style="color:#000000;font-style:normal;font-variant:normal;font-weight:normal;font-stretch:normal;font-size:medium;line-height:normal;font-family:sans-serif;text-indent:0;text-align:start;text-decoration:none;text-decoration-line:none;text-decoration-style:solid;text-decoration-color:#000000;letter-spacing:normal;word-spacing:normal;text-transform:none;writing-mode:lr-tb;direction:ltr;baseline-shift:baseline;text-anchor:start;white-space:normal;clip-rule:nonzero;display:inline;overflow:visible;visibility:visible;opacity:1;isolation:auto;mix-blend-mode:normal;color-interpolation:sRGB;color-interpolation-filters:linearRGB;solid-color:#000000;solid-opacity:1;fill:#ffffff;fill-opacity:1;fill-rule:nonzero;stroke:none;stroke-width:5.59273672;stroke-linecap:butt;stroke-linejoin:miter;stroke-miterlimit:10;stroke-dasharray:none;stroke-dashoffset:0;stroke-opacity:1;color-rendering:auto;image-rendering:auto;shape-rendering:auto;text-rendering:auto;enable-background:accumulate"
     d="M 67.307795,10 C 55.445624,10 45.391448,18.041769 42.275325,28.937463 39.567089,23.158221 33.698247,19.109372 26.93836,19.109372 17.64192,19.109372 10,26.751292 10,36.047732 c 0,9.296429 7.64192,16.941836 16.93836,16.941836 6.759887,0 12.628729,-4.05132 15.336965,-9.831567 3.116123,10.896507 13.170299,18.940949 25.03247,18.940949 11.77445,0 21.77736,-7.92312 24.973175,-18.696727 2.758286,5.649027 8.55449,9.587345 15.21836,9.587345 9.29644,0 16.94184,-7.645407 16.94184,-16.941836 0,-9.29644 -7.6454,-16.93836 -16.94184,-16.93836 -6.66387,0 -12.460074,3.935846 -15.21836,9.583869 C 89.085155,17.920467 79.082245,10 67.307795,10 Z m 0,9.943213 c 8.954599,0 16.108025,7.14995 16.108025,16.104519 0,8.954569 -7.153426,16.108005 -16.108025,16.108005 -8.954549,0 -16.104498,-7.153436 -16.104498,-16.108005 0,-8.954569 7.149949,-16.104519 16.104498,-16.104519 z M 26.93836,29.052595 c 3.923195,0 6.998623,3.071921 6.998623,6.995137 0,3.923205 -3.075428,6.998623 -6.998623,6.998623 -3.923216,0 -6.995147,-3.075418 -6.995147,-6.998623 0,-3.923216 3.071931,-6.995137 6.995147,-6.995137 z m 80.56097,0 c 3.92322,0 6.99862,3.071921 6.99862,6.995137 0,3.923205 -3.07542,6.998623 -6.99862,6.998623 -3.9232,0 -6.99513,-3.075418 -6.99513,-6.998623 0,-3.923216 3.07195,-6.995137 6.99513,-6.995137 z"
     id="XMLID_107_"
     inkscape:connector-curvature="0" /></svg>